<svg aria-hidden="true" style="position: absolute; width: 0; height: 0; overflow: hidden;" version="1.1" xmlns="http://www.w3.org/2000/svg" xmlns:xlink="http://www.w3.org/1999/xlink">
<defs>
<linearGradient id="gradient" x1="29.1176" y1="3.83823" x2="3.57353" y2="29.3824" gradientUnits="userSpaceOnUse">
      <stop stop-color="#18C8FF" />
      <stop offset="1" stop-color="#933FFE" />
    </linearGradient>
<symbol id="icon-logo" viewBox="0 0 106 32">
<path fill="url(#gradient)" d="M22.926 30.423c-2.446 1.175-5.151 1.708-7.86 1.55s-5.333-1.003-7.626-2.454-4.178-3.462-5.48-5.843c-1.302-2.381-1.976-5.054-1.961-7.767s0.721-5.378 2.050-7.744c1.329-2.366 3.238-4.355 5.547-5.78s4.943-2.239 7.654-2.366c2.711-0.127 5.409 0.438 7.841 1.641l-3.461 6.998c-1.245-0.616-2.627-0.905-4.015-0.84s-2.737 0.482-3.919 1.212c-1.183 0.73-2.16 1.748-2.841 2.959s-1.042 2.576-1.050 3.965c-0.008 1.389 0.337 2.758 1.004 3.977s1.632 2.249 2.806 2.992c1.174 0.743 2.518 1.176 3.905 1.257s2.772-0.192 4.025-0.794l3.38 7.038z"></path>
<path fill="#b982ff" style="fill: var(--color2, #b982ff)" d="M21.333 15.809c0 3.051-2.473 5.524-5.524 5.524s-5.524-2.473-5.524-5.524c0-3.051 2.473-5.524 5.524-5.524s5.524 2.473 5.524 5.524z"></path>
<path fill="#b982ff" style="fill: var(--color2, #b982ff)" d="M104.055 20.194c-0.414 0-0.771-0.145-1.067-0.434-0.293-0.293-0.438-0.649-0.435-1.067-0.004-0.408 0.141-0.756 0.435-1.046 0.296-0.29 0.652-0.434 1.067-0.434 0.394 0 0.74 0.145 1.041 0.434 0.303 0.29 0.457 0.638 0.46 1.046-0.004 0.279-0.076 0.533-0.22 0.762-0.14 0.225-0.322 0.406-0.547 0.542-0.226 0.132-0.47 0.198-0.735 0.198z"></path>
<path fill="#fff" style="fill: var(--color3, #fff)" d="M95.621 23.111c-0.34 0-0.664-0.027-0.971-0.080-0.308-0.050-0.578-0.12-0.81-0.209l0.644-2.102c0.243 0.086 0.464 0.141 0.665 0.166 0.204 0.025 0.377 0.011 0.52-0.043 0.147-0.054 0.252-0.155 0.316-0.306l0.064-0.15-2.896-8.602h3.089l1.331 5.706h0.085l1.352-5.706h3.11l-3.004 8.924c-0.15 0.454-0.368 0.862-0.654 1.223-0.283 0.365-0.654 0.652-1.116 0.863s-1.036 0.316-1.726 0.316z"></path>
<path fill="#fff" style="fill: var(--color3, #fff)" d="M92.311 9.039v10.983h-2.96v-10.983h2.96z"></path>
<path fill="#fff" style="fill: var(--color3, #fff)" d="M87.843 9.039v10.983h-2.96v-10.983h2.96z"></path>
<path fill="#fff" style="fill: var(--color3, #fff)" d="M79.412 20.173c-0.894 0-1.659-0.177-2.295-0.531-0.636-0.358-1.124-0.855-1.464-1.491-0.34-0.64-0.51-1.382-0.51-2.226s0.17-1.584 0.51-2.22c0.34-0.64 0.828-1.137 1.464-1.491 0.636-0.357 1.401-0.536 2.295-0.536s1.659 0.179 2.295 0.536c0.636 0.354 1.124 0.851 1.464 1.491 0.34 0.636 0.509 1.376 0.509 2.22s-0.17 1.586-0.509 2.226c-0.34 0.636-0.828 1.133-1.464 1.491-0.636 0.354-1.401 0.531-2.295 0.531zM79.434 17.985c0.25 0 0.467-0.084 0.649-0.252s0.324-0.408 0.424-0.719c0.1-0.311 0.15-0.681 0.15-1.11 0-0.433-0.050-0.803-0.15-1.11-0.1-0.311-0.241-0.551-0.424-0.719s-0.399-0.252-0.649-0.252c-0.265 0-0.492 0.084-0.681 0.252s-0.334 0.408-0.434 0.719c-0.1 0.307-0.15 0.678-0.15 1.11 0 0.429 0.050 0.799 0.15 1.11s0.245 0.551 0.434 0.719c0.189 0.168 0.417 0.252 0.681 0.252z"></path>
<path fill="#fff" style="fill: var(--color3, #fff)" d="M74.324 11.784v2.145h-5.427v-2.145h5.427zM69.948 9.811h2.96v7.562c0 0.114 0.020 0.211 0.059 0.29 0.039 0.075 0.1 0.132 0.182 0.172 0.082 0.036 0.188 0.054 0.316 0.054 0.089 0 0.193-0.011 0.311-0.032 0.121-0.021 0.211-0.039 0.268-0.054l0.429 2.081c-0.132 0.039-0.322 0.088-0.568 0.145-0.243 0.057-0.533 0.095-0.869 0.113-0.679 0.036-1.249-0.034-1.711-0.209-0.461-0.179-0.808-0.459-1.040-0.842s-0.345-0.862-0.338-1.437v-7.84z"></path>
<path fill="#fff" style="fill: var(--color3, #fff)" d="M59.634 23.111v-11.326h2.939v1.437h0.064c0.107-0.279 0.265-0.534 0.472-0.767 0.207-0.236 0.465-0.424 0.772-0.563 0.307-0.143 0.665-0.214 1.073-0.214 0.543 0 1.060 0.145 1.55 0.434 0.493 0.29 0.894 0.745 1.201 1.367 0.311 0.622 0.466 1.43 0.466 2.424 0 0.951-0.148 1.739-0.445 2.365-0.293 0.626-0.686 1.092-1.18 1.4-0.49 0.307-1.028 0.461-1.614 0.461-0.386 0-0.731-0.063-1.035-0.188-0.3-0.129-0.558-0.302-0.772-0.52-0.211-0.222-0.374-0.472-0.488-0.751h-0.043v4.44h-2.96zM62.53 15.904c0 0.4 0.052 0.747 0.156 1.040 0.107 0.29 0.257 0.515 0.45 0.676 0.197 0.157 0.431 0.236 0.703 0.236s0.502-0.077 0.692-0.231c0.193-0.157 0.34-0.381 0.44-0.67 0.104-0.293 0.155-0.644 0.155-1.051s-0.052-0.756-0.155-1.046c-0.1-0.293-0.247-0.517-0.44-0.67-0.189-0.157-0.42-0.236-0.692-0.236s-0.506 0.079-0.703 0.236c-0.193 0.154-0.343 0.377-0.45 0.67-0.104 0.29-0.156 0.638-0.156 1.046z"></path>
<path fill="#fff" style="fill: var(--color3, #fff)" d="M52.293 23.111c-0.34 0-0.663-0.027-0.971-0.080-0.307-0.050-0.577-0.12-0.81-0.209l0.644-2.102c0.243 0.086 0.465 0.141 0.665 0.166 0.204 0.025 0.377 0.011 0.52-0.043 0.147-0.054 0.252-0.155 0.316-0.306l0.064-0.15-2.896-8.602h3.089l1.33 5.706h0.086l1.351-5.706h3.11l-3.003 8.924c-0.15 0.454-0.368 0.862-0.654 1.223-0.282 0.365-0.654 0.652-1.115 0.863s-1.037 0.316-1.727 0.316z"></path>
<path fill="#fff" style="fill: var(--color3, #fff)" d="M43.692 20.022v-8.237h2.874v1.566h0.086c0.15-0.579 0.388-1.003 0.713-1.271 0.329-0.268 0.713-0.402 1.153-0.402 0.129 0 0.256 0.011 0.381 0.032 0.129 0.018 0.252 0.045 0.37 0.080v2.526c-0.147-0.050-0.327-0.088-0.542-0.113s-0.399-0.037-0.552-0.037c-0.29 0-0.551 0.066-0.783 0.198-0.229 0.129-0.409 0.311-0.542 0.547-0.132 0.232-0.198 0.506-0.198 0.82v4.29h-2.96z"></path>
<path fill="#fff" style="fill: var(--color3, #fff)" d="M42.297 13.158h-3.025c-0.021-0.25-0.079-0.477-0.172-0.681-0.089-0.204-0.215-0.379-0.375-0.526-0.157-0.15-0.349-0.265-0.574-0.343-0.225-0.082-0.481-0.123-0.767-0.123-0.5 0-0.924 0.122-1.271 0.365-0.343 0.243-0.604 0.592-0.783 1.046-0.175 0.454-0.263 0.999-0.263 1.636 0 0.672 0.089 1.235 0.268 1.689 0.182 0.451 0.445 0.79 0.788 1.019 0.343 0.225 0.756 0.338 1.239 0.338 0.275 0 0.522-0.034 0.74-0.102 0.218-0.071 0.408-0.173 0.568-0.306s0.291-0.291 0.391-0.477c0.104-0.189 0.173-0.402 0.209-0.638l3.025 0.021c-0.036 0.465-0.166 0.939-0.391 1.421-0.225 0.479-0.545 0.922-0.96 1.33-0.411 0.404-0.921 0.729-1.528 0.976s-1.314 0.37-2.118 0.37c-1.008 0-1.913-0.216-2.713-0.649-0.797-0.433-1.428-1.069-1.893-1.909-0.461-0.84-0.692-1.868-0.692-3.084 0-1.223 0.236-2.252 0.708-3.089 0.472-0.84 1.108-1.475 1.909-1.904 0.801-0.433 1.695-0.649 2.681-0.649 0.694 0 1.332 0.095 1.914 0.284s1.094 0.466 1.534 0.831c0.44 0.361 0.794 0.806 1.062 1.335s0.431 1.135 0.488 1.818z"></path>
</symbol>
<symbol id="icon-burger" viewBox="0 0 31 32">
<path fill="#fff" style="fill: var(--color3, #fff)" d="M5.172 24h20.687c0.711 0 1.293-0.6 1.293-1.333s-0.582-1.333-1.293-1.333h-20.687c-0.711 0-1.293 0.6-1.293 1.333s0.582 1.333 1.293 1.333zM5.172 17.333h20.687c0.711 0 1.293-0.6 1.293-1.333s-0.582-1.333-1.293-1.333h-20.687c-0.711 0-1.293 0.6-1.293 1.333s0.582 1.333 1.293 1.333zM3.879 9.333c0 0.733 0.582 1.333 1.293 1.333h20.687c0.711 0 1.293-0.6 1.293-1.333s-0.582-1.333-1.293-1.333h-20.687c-0.711 0-1.293 0.6-1.293 1.333z"></path>
</symbol>
<symbol id="icon-close" viewBox="0 0 32 32">
<path fill="#fff" style="fill: var(--color1, #fff)" d="M24.4 7.614c-0.123-0.124-0.27-0.222-0.431-0.289s-0.334-0.101-0.509-0.101c-0.175 0-0.348 0.034-0.509 0.101s-0.308 0.165-0.431 0.289l-6.52 6.507-6.52-6.52c-0.123-0.123-0.27-0.221-0.431-0.288s-0.334-0.101-0.509-0.101c-0.175 0-0.347 0.034-0.509 0.101s-0.308 0.165-0.431 0.288c-0.123 0.123-0.221 0.27-0.288 0.431s-0.101 0.334-0.101 0.509c0 0.175 0.034 0.347 0.101 0.509s0.165 0.308 0.288 0.431l6.52 6.52-6.52 6.52c-0.123 0.123-0.221 0.27-0.288 0.431s-0.101 0.334-0.101 0.509c0 0.175 0.034 0.347 0.101 0.509s0.165 0.308 0.288 0.431 0.27 0.221 0.431 0.288c0.161 0.067 0.334 0.101 0.509 0.101s0.347-0.034 0.509-0.101c0.161-0.067 0.308-0.165 0.431-0.288l6.52-6.52 6.52 6.52c0.123 0.123 0.27 0.221 0.431 0.288s0.334 0.101 0.509 0.101c0.175 0 0.347-0.034 0.509-0.101s0.308-0.165 0.431-0.288 0.221-0.27 0.288-0.431c0.067-0.161 0.101-0.334 0.101-0.509s-0.034-0.347-0.101-0.509c-0.067-0.161-0.165-0.308-0.288-0.431l-6.52-6.52 6.52-6.52c0.507-0.507 0.507-1.36 0-1.867z"></path>
</symbol>
<symbol id="icon-logo-text" viewBox="0 0 158 32">
<path fill="#b982ff" style="fill: var(--color2, #b982ff)" d="M153.609 24.886c-0.879 0-1.633-0.307-2.262-0.92-0.622-0.621-0.928-1.375-0.92-2.261-0.008-0.864 0.298-1.602 0.92-2.216 0.629-0.614 1.383-0.92 2.262-0.92 0.833 0 1.568 0.307 2.205 0.92 0.643 0.614 0.969 1.352 0.977 2.216-0.008 0.591-0.163 1.129-0.466 1.614-0.295 0.477-0.681 0.86-1.159 1.148-0.478 0.28-0.997 0.42-1.557 0.42z"></path>
<path fill="#fff" style="fill: var(--color1, #fff)" d="M135.737 31.068c-0.72 0-1.406-0.057-2.057-0.171-0.651-0.106-1.224-0.254-1.715-0.443l1.363-4.454c0.514 0.182 0.984 0.299 1.409 0.352 0.432 0.053 0.799 0.023 1.102-0.091 0.311-0.114 0.534-0.329 0.671-0.648l0.136-0.318-6.136-18.227h6.545l2.818 12.091h0.182l2.864-12.091h6.591l-6.363 18.909c-0.319 0.962-0.781 1.826-1.386 2.591-0.599 0.773-1.387 1.383-2.365 1.829s-2.197 0.671-3.658 0.671z"></path>
<path fill="#fff" style="fill: var(--color1, #fff)" d="M128.722 1.25v23.273h-6.272v-23.273h6.272z"></path>
<path fill="#fff" style="fill: var(--color1, #fff)" d="M119.254 1.25v23.273h-6.273v-23.273h6.273z"></path>
<path fill="#fff" style="fill: var(--color1, #fff)" d="M101.39 24.841c-1.894 0-3.515-0.375-4.864-1.125-1.349-0.758-2.383-1.811-3.102-3.159-0.72-1.356-1.080-2.928-1.080-4.716s0.36-3.356 1.080-4.704c0.72-1.356 1.754-2.409 3.102-3.159 1.348-0.758 2.97-1.136 4.864-1.136s3.515 0.379 4.864 1.136c1.348 0.75 2.383 1.803 3.102 3.159 0.72 1.348 1.080 2.917 1.080 4.704s-0.36 3.36-1.080 4.716c-0.72 1.349-1.754 2.402-3.102 3.159-1.348 0.75-2.97 1.125-4.864 1.125zM101.435 20.205c0.53 0 0.989-0.178 1.375-0.534s0.686-0.864 0.898-1.523c0.212-0.659 0.318-1.443 0.318-2.352 0-0.917-0.106-1.701-0.318-2.352-0.212-0.659-0.511-1.167-0.898-1.523s-0.845-0.534-1.375-0.534c-0.561 0-1.042 0.178-1.443 0.534s-0.708 0.864-0.92 1.523c-0.212 0.652-0.318 1.436-0.318 2.352 0 0.909 0.106 1.693 0.318 2.352s0.519 1.167 0.92 1.523c0.402 0.356 0.883 0.534 1.443 0.534z"></path>
<path fill="#fff" style="fill: var(--color1, #fff)" d="M90.609 7.068v4.545h-11.5v-4.545h11.5zM81.336 2.886h6.273v16.023c0 0.242 0.042 0.447 0.125 0.614 0.083 0.159 0.212 0.28 0.386 0.364 0.174 0.076 0.398 0.114 0.67 0.114 0.189 0 0.409-0.023 0.659-0.068 0.258-0.046 0.447-0.083 0.568-0.114l0.909 4.409c-0.28 0.083-0.682 0.186-1.205 0.307-0.515 0.121-1.129 0.201-1.841 0.239-1.439 0.076-2.648-0.072-3.625-0.443-0.977-0.379-1.712-0.974-2.205-1.784s-0.731-1.826-0.716-3.046v-16.614z"></path>
<path fill="#fff" style="fill: var(--color1, #fff)" d="M59.481 31.069v-24h6.227v3.045h0.136c0.227-0.591 0.561-1.133 1-1.625 0.439-0.5 0.985-0.898 1.636-1.193 0.652-0.303 1.409-0.455 2.273-0.455 1.152 0 2.246 0.307 3.284 0.92 1.046 0.614 1.894 1.58 2.546 2.898 0.659 1.318 0.989 3.030 0.989 5.136 0 2.015-0.314 3.686-0.943 5.011-0.621 1.326-1.455 2.314-2.5 2.966-1.038 0.651-2.178 0.977-3.42 0.977-0.818 0-1.549-0.133-2.193-0.398-0.636-0.273-1.182-0.64-1.636-1.102-0.447-0.47-0.792-1-1.034-1.591h-0.091v9.409h-6.273zM65.617 15.796c0 0.848 0.11 1.583 0.33 2.204 0.227 0.614 0.545 1.091 0.954 1.432 0.417 0.333 0.913 0.5 1.489 0.5s1.064-0.163 1.466-0.489c0.409-0.333 0.72-0.807 0.932-1.42 0.22-0.621 0.329-1.364 0.329-2.227s-0.11-1.602-0.329-2.216c-0.212-0.621-0.523-1.095-0.932-1.42-0.401-0.333-0.89-0.5-1.466-0.5s-1.072 0.167-1.489 0.5c-0.409 0.326-0.727 0.799-0.954 1.42-0.22 0.614-0.33 1.352-0.33 2.216z"></path>
<path fill="#fff" style="fill: var(--color1, #fff)" d="M43.924 31.068c-0.72 0-1.405-0.057-2.057-0.171-0.652-0.106-1.223-0.254-1.716-0.443l1.364-4.454c0.515 0.182 0.985 0.299 1.409 0.352 0.432 0.053 0.799 0.023 1.102-0.091 0.311-0.114 0.534-0.329 0.67-0.648l0.136-0.318-6.136-18.227h6.545l2.818 12.091h0.182l2.864-12.091h6.591l-6.364 18.909c-0.318 0.962-0.78 1.826-1.386 2.591-0.599 0.773-1.386 1.383-2.364 1.829s-2.197 0.671-3.659 0.671z"></path>
<path fill="#fff" style="fill: var(--color1, #fff)" d="M25.7 24.523v-17.455h6.091v3.318h0.182c0.318-1.227 0.822-2.125 1.511-2.693 0.697-0.568 1.511-0.852 2.443-0.852 0.273 0 0.542 0.023 0.807 0.068 0.273 0.038 0.534 0.095 0.784 0.17v5.352c-0.311-0.106-0.693-0.186-1.148-0.239s-0.845-0.080-1.17-0.080c-0.614 0-1.167 0.14-1.659 0.42-0.485 0.273-0.867 0.659-1.148 1.159-0.28 0.492-0.42 1.072-0.42 1.739v9.091h-6.273z"></path>
<path fill="#fff" style="fill: var(--color1, #fff)" d="M22.742 9.977h-6.409c-0.045-0.53-0.167-1.011-0.364-1.443-0.19-0.432-0.455-0.803-0.796-1.114-0.333-0.318-0.739-0.561-1.216-0.727-0.477-0.174-1.019-0.261-1.625-0.261-1.061 0-1.958 0.258-2.693 0.773-0.727 0.515-1.28 1.254-1.659 2.216-0.371 0.962-0.557 2.117-0.557 3.466 0 1.424 0.189 2.617 0.568 3.58 0.386 0.954 0.943 1.674 1.67 2.159 0.727 0.477 1.602 0.716 2.625 0.716 0.583 0 1.106-0.072 1.568-0.216 0.462-0.152 0.864-0.367 1.205-0.648s0.617-0.617 0.83-1.011c0.22-0.402 0.367-0.852 0.443-1.352l6.409 0.046c-0.076 0.985-0.352 1.989-0.829 3.011-0.477 1.015-1.155 1.955-2.034 2.818-0.871 0.856-1.951 1.546-3.239 2.068s-2.784 0.784-4.489 0.784c-2.136 0-4.053-0.458-5.75-1.375-1.689-0.917-3.026-2.265-4.011-4.046-0.977-1.78-1.466-3.958-1.466-6.534 0-2.591 0.5-4.773 1.5-6.545 1-1.78 2.348-3.125 4.045-4.034 1.697-0.917 3.591-1.375 5.682-1.375 1.47 0 2.822 0.201 4.057 0.602s2.318 0.989 3.25 1.761c0.932 0.765 1.682 1.708 2.25 2.83s0.913 2.405 1.034 3.852z"></path>
</symbol>
</defs>
</svg>
