<svg aria-hidden="true" style="position: absolute; width: 0; height: 0; overflow: hidden;" version="1.1" xmlns="http://www.w3.org/2000/svg" xmlns:xlink="http://www.w3.org/1999/xlink">
<defs>
<linearGradient id="gradient1" x1="29.1176" y1="3.83823" x2="3.57353" y2="29.3824" gradientUnits="userSpaceOnUse">
      <stop stop-color="#18C8FF" />
      <stop offset="1" stop-color="#933FFE" />
    </linearGradient>
<symbol id="icon-logo" viewBox="0 0 106 32">
<path fill="url(#gradient1)" d="M22.926 30.423c-2.446 1.175-5.151 1.708-7.86 1.55s-5.333-1.003-7.626-2.454-4.178-3.462-5.48-5.843c-1.302-2.381-1.976-5.054-1.961-7.767s0.721-5.378 2.050-7.744c1.329-2.366 3.238-4.355 5.547-5.78s4.943-2.239 7.654-2.366c2.711-0.127 5.409 0.438 7.841 1.641l-3.461 6.998c-1.245-0.616-2.627-0.905-4.015-0.84s-2.737 0.482-3.919 1.212c-1.183 0.73-2.16 1.748-2.841 2.959s-1.042 2.576-1.050 3.965c-0.008 1.389 0.337 2.758 1.004 3.977s1.632 2.249 2.806 2.992c1.174 0.743 2.518 1.176 3.905 1.257s2.772-0.192 4.025-0.794l3.38 7.038z"></path>
<path fill="#b982ff" style="fill: var(--color2, #b982ff)" d="M21.333 15.809c0 3.051-2.473 5.524-5.524 5.524s-5.524-2.473-5.524-5.524c0-3.051 2.473-5.524 5.524-5.524s5.524 2.473 5.524 5.524z"></path>
<path fill="#b982ff" style="fill: var(--color2, #b982ff)" d="M104.055 20.194c-0.414 0-0.771-0.145-1.067-0.434-0.293-0.293-0.438-0.649-0.435-1.067-0.004-0.408 0.141-0.756 0.435-1.046 0.296-0.29 0.652-0.434 1.067-0.434 0.394 0 0.74 0.145 1.041 0.434 0.303 0.29 0.457 0.638 0.46 1.046-0.004 0.279-0.076 0.533-0.22 0.762-0.14 0.225-0.322 0.406-0.547 0.542-0.226 0.132-0.47 0.198-0.735 0.198z"></path>
<path fill="#fff" style="fill: var(--color3, #fff)" d="M95.621 23.111c-0.34 0-0.664-0.027-0.971-0.080-0.308-0.050-0.578-0.12-0.81-0.209l0.644-2.102c0.243 0.086 0.464 0.141 0.665 0.166 0.204 0.025 0.377 0.011 0.52-0.043 0.147-0.054 0.252-0.155 0.316-0.306l0.064-0.15-2.896-8.602h3.089l1.331 5.706h0.085l1.352-5.706h3.11l-3.004 8.924c-0.15 0.454-0.368 0.862-0.654 1.223-0.283 0.365-0.654 0.652-1.116 0.863s-1.036 0.316-1.726 0.316z"></path>
<path fill="#fff" style="fill: var(--color3, #fff)" d="M92.311 9.039v10.983h-2.96v-10.983h2.96z"></path>
<path fill="#fff" style="fill: var(--color3, #fff)" d="M87.843 9.039v10.983h-2.96v-10.983h2.96z"></path>
<path fill="#fff" style="fill: var(--color3, #fff)" d="M79.412 20.173c-0.894 0-1.659-0.177-2.295-0.531-0.636-0.358-1.124-0.855-1.464-1.491-0.34-0.64-0.51-1.382-0.51-2.226s0.17-1.584 0.51-2.22c0.34-0.64 0.828-1.137 1.464-1.491 0.636-0.357 1.401-0.536 2.295-0.536s1.659 0.179 2.295 0.536c0.636 0.354 1.124 0.851 1.464 1.491 0.34 0.636 0.509 1.376 0.509 2.22s-0.17 1.586-0.509 2.226c-0.34 0.636-0.828 1.133-1.464 1.491-0.636 0.354-1.401 0.531-2.295 0.531zM79.434 17.985c0.25 0 0.467-0.084 0.649-0.252s0.324-0.408 0.424-0.719c0.1-0.311 0.15-0.681 0.15-1.11 0-0.433-0.050-0.803-0.15-1.11-0.1-0.311-0.241-0.551-0.424-0.719s-0.399-0.252-0.649-0.252c-0.265 0-0.492 0.084-0.681 0.252s-0.334 0.408-0.434 0.719c-0.1 0.307-0.15 0.678-0.15 1.11 0 0.429 0.050 0.799 0.15 1.11s0.245 0.551 0.434 0.719c0.189 0.168 0.417 0.252 0.681 0.252z"></path>
<path fill="#fff" style="fill: var(--color3, #fff)" d="M74.324 11.784v2.145h-5.427v-2.145h5.427zM69.948 9.811h2.96v7.562c0 0.114 0.020 0.211 0.059 0.29 0.039 0.075 0.1 0.132 0.182 0.172 0.082 0.036 0.188 0.054 0.316 0.054 0.089 0 0.193-0.011 0.311-0.032 0.121-0.021 0.211-0.039 0.268-0.054l0.429 2.081c-0.132 0.039-0.322 0.088-0.568 0.145-0.243 0.057-0.533 0.095-0.869 0.113-0.679 0.036-1.249-0.034-1.711-0.209-0.461-0.179-0.808-0.459-1.040-0.842s-0.345-0.862-0.338-1.437v-7.84z"></path>
<path fill="#fff" style="fill: var(--color3, #fff)" d="M59.634 23.111v-11.326h2.939v1.437h0.064c0.107-0.279 0.265-0.534 0.472-0.767 0.207-0.236 0.465-0.424 0.772-0.563 0.307-0.143 0.665-0.214 1.073-0.214 0.543 0 1.060 0.145 1.55 0.434 0.493 0.29 0.894 0.745 1.201 1.367 0.311 0.622 0.466 1.43 0.466 2.424 0 0.951-0.148 1.739-0.445 2.365-0.293 0.626-0.686 1.092-1.18 1.4-0.49 0.307-1.028 0.461-1.614 0.461-0.386 0-0.731-0.063-1.035-0.188-0.3-0.129-0.558-0.302-0.772-0.52-0.211-0.222-0.374-0.472-0.488-0.751h-0.043v4.44h-2.96zM62.53 15.904c0 0.4 0.052 0.747 0.156 1.040 0.107 0.29 0.257 0.515 0.45 0.676 0.197 0.157 0.431 0.236 0.703 0.236s0.502-0.077 0.692-0.231c0.193-0.157 0.34-0.381 0.44-0.67 0.104-0.293 0.155-0.644 0.155-1.051s-0.052-0.756-0.155-1.046c-0.1-0.293-0.247-0.517-0.44-0.67-0.189-0.157-0.42-0.236-0.692-0.236s-0.506 0.079-0.703 0.236c-0.193 0.154-0.343 0.377-0.45 0.67-0.104 0.29-0.156 0.638-0.156 1.046z"></path>
<path fill="#fff" style="fill: var(--color3, #fff)" d="M52.293 23.111c-0.34 0-0.663-0.027-0.971-0.080-0.307-0.050-0.577-0.12-0.81-0.209l0.644-2.102c0.243 0.086 0.465 0.141 0.665 0.166 0.204 0.025 0.377 0.011 0.52-0.043 0.147-0.054 0.252-0.155 0.316-0.306l0.064-0.15-2.896-8.602h3.089l1.33 5.706h0.086l1.351-5.706h3.11l-3.003 8.924c-0.15 0.454-0.368 0.862-0.654 1.223-0.282 0.365-0.654 0.652-1.115 0.863s-1.037 0.316-1.727 0.316z"></path>
<path fill="#fff" style="fill: var(--color3, #fff)" d="M43.692 20.022v-8.237h2.874v1.566h0.086c0.15-0.579 0.388-1.003 0.713-1.271 0.329-0.268 0.713-0.402 1.153-0.402 0.129 0 0.256 0.011 0.381 0.032 0.129 0.018 0.252 0.045 0.37 0.080v2.526c-0.147-0.050-0.327-0.088-0.542-0.113s-0.399-0.037-0.552-0.037c-0.29 0-0.551 0.066-0.783 0.198-0.229 0.129-0.409 0.311-0.542 0.547-0.132 0.232-0.198 0.506-0.198 0.82v4.29h-2.96z"></path>
<path fill="#fff" style="fill: var(--color3, #fff)" d="M42.297 13.158h-3.025c-0.021-0.25-0.079-0.477-0.172-0.681-0.089-0.204-0.215-0.379-0.375-0.526-0.157-0.15-0.349-0.265-0.574-0.343-0.225-0.082-0.481-0.123-0.767-0.123-0.5 0-0.924 0.122-1.271 0.365-0.343 0.243-0.604 0.592-0.783 1.046-0.175 0.454-0.263 0.999-0.263 1.636 0 0.672 0.089 1.235 0.268 1.689 0.182 0.451 0.445 0.79 0.788 1.019 0.343 0.225 0.756 0.338 1.239 0.338 0.275 0 0.522-0.034 0.74-0.102 0.218-0.071 0.408-0.173 0.568-0.306s0.291-0.291 0.391-0.477c0.104-0.189 0.173-0.402 0.209-0.638l3.025 0.021c-0.036 0.465-0.166 0.939-0.391 1.421-0.225 0.479-0.545 0.922-0.96 1.33-0.411 0.404-0.921 0.729-1.528 0.976s-1.314 0.37-2.118 0.37c-1.008 0-1.913-0.216-2.713-0.649-0.797-0.433-1.428-1.069-1.893-1.909-0.461-0.84-0.692-1.868-0.692-3.084 0-1.223 0.236-2.252 0.708-3.089 0.472-0.84 1.108-1.475 1.909-1.904 0.801-0.433 1.695-0.649 2.681-0.649 0.694 0 1.332 0.095 1.914 0.284s1.094 0.466 1.534 0.831c0.44 0.361 0.794 0.806 1.062 1.335s0.431 1.135 0.488 1.818z"></path>
</symbol>
<symbol id="icon-burger" viewBox="0 0 31 32">
<path fill="#fff" style="fill: var(--color3, #fff)" d="M5.172 24h20.687c0.711 0 1.293-0.6 1.293-1.333s-0.582-1.333-1.293-1.333h-20.687c-0.711 0-1.293 0.6-1.293 1.333s0.582 1.333 1.293 1.333zM5.172 17.333h20.687c0.711 0 1.293-0.6 1.293-1.333s-0.582-1.333-1.293-1.333h-20.687c-0.711 0-1.293 0.6-1.293 1.333s0.582 1.333 1.293 1.333zM3.879 9.333c0 0.733 0.582 1.333 1.293 1.333h20.687c0.711 0 1.293-0.6 1.293-1.333s-0.582-1.333-1.293-1.333h-20.687c-0.711 0-1.293 0.6-1.293 1.333z"></path>
</symbol>
<symbol id="icon-close" viewBox="0 0 32 32">
<path fill="#fff" style="fill: var(--color1, #fff)" d="M24.4 7.614c-0.123-0.124-0.27-0.222-0.431-0.289s-0.334-0.101-0.509-0.101c-0.175 0-0.348 0.034-0.509 0.101s-0.308 0.165-0.431 0.289l-6.52 6.507-6.52-6.52c-0.123-0.123-0.27-0.221-0.431-0.288s-0.334-0.101-0.509-0.101c-0.175 0-0.347 0.034-0.509 0.101s-0.308 0.165-0.431 0.288c-0.123 0.123-0.221 0.27-0.288 0.431s-0.101 0.334-0.101 0.509c0 0.175 0.034 0.347 0.101 0.509s0.165 0.308 0.288 0.431l6.52 6.52-6.52 6.52c-0.123 0.123-0.221 0.27-0.288 0.431s-0.101 0.334-0.101 0.509c0 0.175 0.034 0.347 0.101 0.509s0.165 0.308 0.288 0.431 0.27 0.221 0.431 0.288c0.161 0.067 0.334 0.101 0.509 0.101s0.347-0.034 0.509-0.101c0.161-0.067 0.308-0.165 0.431-0.288l6.52-6.52 6.52 6.52c0.123 0.123 0.27 0.221 0.431 0.288s0.334 0.101 0.509 0.101c0.175 0 0.347-0.034 0.509-0.101s0.308-0.165 0.431-0.288 0.221-0.27 0.288-0.431c0.067-0.161 0.101-0.334 0.101-0.509s-0.034-0.347-0.101-0.509c-0.067-0.161-0.165-0.308-0.288-0.431l-6.52-6.52 6.52-6.52c0.507-0.507 0.507-1.36 0-1.867z"></path>
</symbol>
</defs>
</svg>
